<?xml version="1.0" encoding="UTF-8" standalone="no"?>
<!-- Created with Inkscape (http://www.inkscape.org/) -->

<svg
   width="210mm"
   height="80mm"
   viewBox="0 0 210 80"
   version="1.1"
   id="svg1"
   inkscape:export-filename="logo_altblock.svg"
   inkscape:export-xdpi="96"
   inkscape:export-ydpi="96"
   inkscape:version="1.3 (0e150ed6c4, 2023-07-21)"
   sodipodi:docname="logo_altblock_inkscape.svg"
   xmlns:inkscape="http://www.inkscape.org/namespaces/inkscape"
   xmlns:sodipodi="http://sodipodi.sourceforge.net/DTD/sodipodi-0.dtd"
   xmlns="http://www.w3.org/2000/svg"
   xmlns:svg="http://www.w3.org/2000/svg">
  <sodipodi:namedview
     id="namedview1"
     pagecolor="#ffffff"
     bordercolor="#000000"
     borderopacity="0.25"
     inkscape:showpageshadow="2"
     inkscape:pageopacity="0.0"
     inkscape:pagecheckerboard="0"
     inkscape:deskcolor="#d1d1d1"
     inkscape:document-units="mm"
     inkscape:zoom="0.79929717"
     inkscape:cx="384.08744"
     inkscape:cy="433.50585"
     inkscape:window-width="1920"
     inkscape:window-height="991"
     inkscape:window-x="-9"
     inkscape:window-y="-9"
     inkscape:window-maximized="1"
     inkscape:current-layer="layer1" />
  <defs
     id="defs1" />
  <g
     inkscape:label="Layer 1"
     inkscape:groupmode="layer"
     id="layer1">
    <path
       id="rect1-9"
       style="fill:#68d7e5;fill-opacity:1;stroke:none;stroke-width:0.560388;stroke-linecap:round"
       d="M 96.624549,2.8399898 V 43.683201 l 1.54278,-2.818787 5.784541,-8.99172 V 2.8399898 Z m 9.423571,16.7483532 v 9.066294 l 6.98525,12.786788 0.34207,0.746773 V 19.588343 Z M 87.200615,32.934398 v 44.2256 h 7.327304 V 70.29928 A 15.082079,15.082079 0 0 1 89.91804,59.470481 15.082079,15.082079 0 0 1 92.812841,50.647445 l 1.715078,-3.133712 V 32.934398 Z m 28.271455,9.421041 v 4.409343 l 1.82151,3.976051 a 15.082079,15.082079 0 0 1 2.78838,8.729648 15.082079,15.082079 0 0 1 -4.60989,10.846899 v 6.842618 h 7.32731 V 42.355439 Z m -37.695389,8.373815 v 26.430744 h 7.327312 V 50.729254 Z m 47.119329,7.589027 v 18.841717 h 7.32731 V 58.318281 Z M 96.624549,71.972017 v 5.187981 h 7.327321 V 74.47008 a 15.082079,15.082079 0 0 1 -7.327321,-2.498063 z m 16.750891,0.03404 a 15.082079,15.082079 0 0 1 -7.32732,2.505664 v 2.648289 h 7.32732 z"
       inkscape:export-filename="logo_altblock.svg"
       inkscape:export-xdpi="96"
       inkscape:export-ydpi="96" />
  </g>
</svg>
