<?xml version="1.0" encoding="UTF-8" standalone="no"?>
<!-- Created with Inkscape (http://www.inkscape.org/) -->

<svg
   width="77.727036mm"
   height="106.09792mm"
   viewBox="0 0 77.727036 106.09792"
   version="1.1"
   id="svg1"
   inkscape:export-filename="logo_altblock.svg"
   inkscape:export-xdpi="96"
   inkscape:export-ydpi="96"
   inkscape:version="1.3 (0e150ed6c4, 2023-07-21)"
   sodipodi:docname="logo_altblock_inkscape.svg"
   xmlns:inkscape="http://www.inkscape.org/namespaces/inkscape"
   xmlns:sodipodi="http://sodipodi.sourceforge.net/DTD/sodipodi-0.dtd"
   xmlns="http://www.w3.org/2000/svg"
   xmlns:svg="http://www.w3.org/2000/svg">
  <sodipodi:namedview
     id="namedview1"
     pagecolor="#ffffff"
     bordercolor="#000000"
     borderopacity="0.25"
     inkscape:showpageshadow="2"
     inkscape:pageopacity="0.0"
     inkscape:pagecheckerboard="0"
     inkscape:deskcolor="#d1d1d1"
     inkscape:document-units="mm"
     inkscape:zoom="0.79929717"
     inkscape:cx="174.52833"
     inkscape:cy="360.9421"
     inkscape:window-width="1920"
     inkscape:window-height="991"
     inkscape:window-x="-9"
     inkscape:window-y="-9"
     inkscape:window-maximized="1"
     inkscape:current-layer="layer1" />
  <defs
     id="defs1" />
  <g
     inkscape:label="Layer 1"
     inkscape:groupmode="layer"
     id="layer1"
     transform="translate(-65.106622,-86.671712)">
    <path
       id="rect1"
       style="fill:#68d7e5;fill-opacity:1;stroke:none;stroke-width:0.799999;stroke-linecap:round"
       d="m 92.013505,86.671712 v 58.307038 l 2.20245,-4.02405 8.257895,-12.83642 V 86.671712 Z m 13.452925,23.909648 v 12.94288 l 9.972,18.25419 0.48834,1.06608 v -32.26315 z m -26.906367,19.05259 v 63.13568 h 10.460343 v -9.79424 a 21.530909,21.530909 0 0 1 -6.580994,-15.459 21.530909,21.530909 0 0 1 4.132565,-12.59561 l 2.448429,-4.47363 v -20.8132 z m 40.359807,13.44931 v 6.2947 l 2.60036,5.67614 a 21.530909,21.530909 0 0 1 3.98064,12.46229 21.530909,21.530909 0 0 1 -6.581,15.48484 v 9.7684 h 10.46035 v -49.68637 z m -53.81325,11.95431 v 37.73206 h 10.460344 v -37.73206 z m 67.2667,10.83396 v 26.8981 h 10.46034 v -26.8981 z m -40.359815,19.49183 v 7.40627 h 10.460345 v -3.84008 a 21.530909,21.530909 0 0 1 -10.460345,-3.56619 z m 23.913265,0.0486 a 21.530909,21.530909 0 0 1 -10.46034,3.57704 v 3.78065 h 10.46034 z" />
  </g>
</svg>
